<svg xmlns="http://www.w3.org/2000/svg" viewBox="-32 32 576 450"><defs><radialGradient id="globalGradient" cx="411.3" cy="108.9" r="181.8" gradientUnits="userSpaceOnUse"><stop offset="0" stop-color="#95deef"/><stop offset=".2" stop-color="#00bfe0"/><stop offset="1" stop-color="#0086b9"/></radialGradient><radialGradient id="landmassGradient" cx="411.3" cy="108.9" r="181.8" gradientUnits="userSpaceOnUse"><stop offset="0" stop-color="#b1ffbc"/><stop offset=".2" stop-color="#2Aff67"/><stop offset="1" stop-color="#00bf57"/></radialGradient><radialGradient id="landmassGradient2" cx="411.3" cy="108.9" r="181.8" gradientUnits="userSpaceOnUse"><stop offset="0" stop-color="#fff"/><stop offset=".1" stop-color="#2AFF67"/><stop offset="1" stop-color="#00BF57"/></radialGradient><mask id="worldMask"><circle fill="#fff" cx="349.5" cy="165" r="130"/></mask><mask id="landmassRotationMask"><use href="#landmassRotation"/></mask><linearGradient id="hobbyistPaint" gradientUnits="userSpaceOnUse" x1="428.8" y1="339.5" x2="86.6" y2="419.6"><stop offset="0" stop-color="#00BFE0"/><stop offset="1" stop-color="#0086B9"/></linearGradient><filter id="shadow"><feDropShadow dx="-4" dy="4" stdDeviation="0"/></filter><style>.cloud{opacity:0.2;fill:#FFFFFF;}
			.globe{fill:url(#globalGradient);}
			.landGradient{fill:url(#landmassGradient);}

			#landmassRotation {
				animation: rotate 30s linear infinite;
			}</style></defs><path class="cloud" d="M138 395c-66 8-150-27-167-81-17-53 30-125 84-173 53-48 110-72 159-67s90 38 138 55c47 16 102 15 137 42 34 27 49 82 54 148 4 66-1 145-43 141s-120-91-183-108c-64-17-113 35-179 43z"/><circle class="globe" cx="349.5" cy="165" r="130"/><g filter="url(#shadow)" mask="url(#worldMask)"><g id="landmassRotation"><path id="landmass" d="m325 208-14-11-16-17 7-10 16 10 2-14 17-17 22-9-20-22-12 19-13-19 20-14-8-13-13 4-30-8-24-14-17 8-6 28h16l17 10-1 16-2 33 19 26 35 19 1 21 6 47 13 13v-24l26-24 7-21-41-26zm41-90 32-11 12-41-12-12-33 7-8 12 9 7zm212 56-12-9 17-13 7-20-12-9 3-10 9-4 8-9 19 18-2-32-11-13-78 10V67h-14l-28 37-21 7-19-7-16 17 3 11-25 19 4 9 22-11 18 14 15-4-5 15 21 22 12-7-10-12v-7l17 10 23 21 8-12 24 12 1-10h8zm-152-3-34 12v25l12 17 29-4v37l20 22 14-12 25-54-31-37zm173 70-9-7-26 14 3 20 18-1 8 8h18l6-19-8-22z" fill="#fff"/></g></g><circle class="landGradient" mask="url(#landmassRotationMask)" cx="349.5" cy="165" r="130"/><g id="the_HTML"><path id="the" d="M40 240v-21h-8v-7h25v7h-7v21H40zm19 0v-28h10v9h7v-9h11v28H76v-9h-7v9H59zm31 0v-28h22v7h-11v3h10v8h-10v2h11v8H90z"/><path id="HTML" d="M35 355V244h42v36h28v-36h41v111h-41v-36H77v36H35zm145 0v-81h-28v-30h98v30h-28v81h-42zm76 0V244h40l23 46 22-46h40v111h-42v-39l-10 20h-21l-10-20v39h-42zm137 0V244h41v79h46v32h-87z"/></g><path filter="url(#shadow)" d="m87 466-1-10a132 132 0 0 1 2-28 233 233 0 0 1 10-44 177 177 0 0 1 12-26h5a35 35 0 0 1 9 2l3 2a215 215 0 0 0-22 42 386 386 0 0 0-7 36c13-23 22-35 30-37l7 1 8 5-6 11a167 167 0 0 0-9 26l-1 8 1 1h2l2-1h2l1 1-1 2-3 3a73 73 0 0 1-7 3h-3l-2-1-2-3-1-2v-6a112 112 0 0 1 4-21 373 373 0 0 1 3-13l-2 1-3 3-7 10a126 126 0 0 0-17 40l-1 2-1 1-1-1-2-2-1-2-1-3zm72-6c-5 1-9-1-13-4-3-3-5-7-6-13l-1-11a50 50 0 0 1 7-21c2-4 4-7 7-9 4-5 8-7 12-8 3 1 6 4 9 8l1-1h1c5-1 7 3 9 10a44 44 0 0 1-5 30 43 43 0 0 1-21 19zm-1-40a57 57 0 0 0-6 21v6l2 5 3 3c4-1 7-3 10-6l6-10c2-4 3-8 3-13a49 49 0 0 0-2-19l-1-3c-4 2-7 4-9 7l-6 9zm43 29c3-3 7-7 9-12a98 98 0 0 0 13-31l2-15-2-2-5 4-5 9a152 152 0 0 0-14 45c-1 0-2 0-3-2l-1-1-2-1a11 11 0 0 1-3-2l-1-3-1-17a184 184 0 0 1 17-73c2-4 5-7 7-8h3a39 39 0 0 1 11 5c-8 9-14 20-19 32-5 13-7 28-9 44a113 113 0 0 1 19-35l6-4 4 2 4 2 3 3 2 4 1 12a71 71 0 0 1-7 24l-6 11-6 7-7 4a16 16 0 0 1-7 0l-2-1-1-1zm50-9c4-3 7-7 10-12a98 98 0 0 0 12-31l2-15-2-2-4 4-6 9a152 152 0 0 0-14 45c-1 0-2 0-3-2l-1-1-2-1a11 11 0 0 1-3-2l-1-3-1-17a184 184 0 0 1 17-73l7-8h4a39 39 0 0 1 10 5c-8 9-14 20-19 32-4 13-7 28-9 44a113 113 0 0 1 19-35l6-4 5 1 3 3 4 3 2 4v12a71 71 0 0 1-7 24l-6 11-6 7-7 4a16 16 0 0 1-6 0l-3-1-1-1zm82-36a296 296 0 0 1-6 33 98 98 0 0 1-11 24l-11 11a26 26 0 0 1-23 5l-6-2-3-3 1-3a35 35 0 0 0 5 3h5c4-1 9-3 13-7 4-3 7-8 10-14s6-12 8-20l4-26-3 7a91 91 0 0 1-9 15c-1 3-3 4-5 5h-4a17 17 0 0 1-8-3l-3-4a53 53 0 0 1-1-11 98 98 0 0 1 9-35l6-10a20 20 0 0 1 12 2l-5 10a137 137 0 0 0-8 38v4a3 3 0 0 0 1 2c2 0 4-2 6-5l6-11a149 149 0 0 0 7-20 1082 1082 0 0 1 8-21h3a33 33 0 0 1 7 1l2 1a528 528 0 0 0-7 34zm8 10v-3a68 68 0 0 1 0-11 607 607 0 0 1 2-20l2-7 4-5a22 22 0 0 1 13 6 44 44 0 0 0-6 15l-1 7a225 225 0 0 1-3 16 27 27 0 0 0 0 10v1h-2l-4-2-3-2-2-5zm14-58v-2l-2-2v-2l-1-3a63 63 0 0 1 2-14h3a29 29 0 0 1 13 6 150 150 0 0 0-11 20l-3-1-1-2zm42 6a24 24 0 0 1-1 10l-1 3-2 2c-1 0-2 0-2-2v-1a206 206 0 0 0 1-6l-2-2-2-1c-3 1-5 3-6 7a49 49 0 0 0 1 20h4l4-1 1 1-1 2a152 152 0 0 0-7 4v3l1 2c1 7 0 13-3 18s-8 8-14 10h-4a17 17 0 0 1-7-4l-3-4 1-9a26 26 0 0 1 11-15c3-2 6-4 10-4l-2-6a175 175 0 0 0-5-11l-1-5v-7a25 25 0 0 1 7-12l5-4 4 1a52 52 0 0 1 10 7l3 4zm-31 63 5-4a28 28 0 0 0 6-13v-7l-5 3a33 33 0 0 0-8 12l-1 5 3 4zm31-61-2-3-1-4 6-1 5-1a120 120 0 0 1 11-24h4a40 40 0 0 1 8 1l2 1a136 136 0 0 0-9 20 1221 1221 0 0 1 12-1v2c-4 2-8 4-14 5a145 145 0 0 0-6 36v9c1 3 3 5 6 5l6-3 6-5 1 2-2 3a53 53 0 0 1-7 7l-3 1h-6l-7-2-4-3-3-4v-8a107 107 0 0 1 2-22l2-12-7 1z" fill="url(#hobbyistPaint)"/></svg>
