<svg xmlns="http://www.w3.org/2000/svg" viewBox="-32 32 576 450"><defs><radialGradient id="globalGradient" cx="411.3" cy="108.9" r="181.8" gradientUnits="userSpaceOnUse"><stop offset="0" stop-color="#95deef"/><stop offset=".2" stop-color="#00bfe0"/><stop offset="1" stop-color="#0086b9"/></radialGradient><radialGradient id="landmassGradient" cx="411.3" cy="108.9" r="181.8" gradientUnits="userSpaceOnUse"><stop offset="0" stop-color="#b1ffbc"/><stop offset=".2" stop-color="#2Aff67"/><stop offset="1" stop-color="#00bf57"/></radialGradient><radialGradient id="landmassGradient2" cx="411.3" cy="108.9" r="181.8" gradientUnits="userSpaceOnUse"><stop offset="0" stop-color="#fff"/><stop offset=".1" stop-color="#2AFF67"/><stop offset="1" stop-color="#00BF57"/></radialGradient><clipPath id="globe"><circle cx="349.5" cy="165" r="130"/></clipPath><clipPath id="landmass" class="landmassRotation"><path d="M324.8 207.8 311 197.4l-16-17.3 7.3-10.4 15.6 10.4 1.7-13.8 17.4-17.4 22.5-8.6-20.8-22.6-12.1 19-12.2-19 19.1-13.8-8-13-12.8 4.3-29.5-8.7L259 72.7l-17.3 8.6-5.2 27.8H252l17.3 10.4-1.7 15.6-1.8 32.9 19 26 34.7 19 1.8 20.8 5.2 46.8 13.8 13.9v-24.3l26-24.2 7-20.8-41.6-26zm41.6-89.5 31.2-11 12.1-41.5-12-12.2-33 7-7.2 12 9 7zm211.3 55.8-12-9.6 17.3-12.1 7-20.8-12.2-8.7 3.5-10.4 8.7-3.4 7.9-9.6 19.5 18.8-2.6-32.3-11-13.3-77.6 9.8v-15H512l-28.1 36.4-20.4 6.9-19.1-7-16.5 17.1 2.6 10.7-24.2 19 3.4 9.4 22.6-11 17.3 13.8 15.6-3.5-4.8 14.8 20.4 21.6 12.1-7-10.4-12v-7l17.3 10.4 22.9 20.8 8.3-12.1 24.3 12.1.9-10.4h7.8zm-152-3.5-34.2 12.3v24.8l12.7 17.8 29.3-4.2v37.1L453 280l13.7-11.7 25.4-54.7-30.8-36zm173 70.2-8.7-7-26 13.9 3.4 20.8 17.4-1.7 8.5 8.6h17.4l6.7-19.6-8.5-22zM1-1h2L2-2z"/><path transform="translate(-412)" d="M324.8 207.8 311 197.4l-16-17.3 7.3-10.4 15.6 10.4 1.7-13.8 17.4-17.4 22.5-8.6-20.8-22.6-12.1 19-12.2-19 19.1-13.8-8-13-12.8 4.3-29.5-8.7L259 72.7l-17.3 8.6-5.2 27.8H252l17.3 10.4-1.7 15.6-1.8 32.9 19 26 34.7 19 1.8 20.8 5.2 46.8 13.8 13.9v-24.3l26-24.2 7-20.8-41.6-26zm41.6-89.5 31.2-11 12.1-41.5-12-12.2-33 7-7.2 12 9 7zm211.3 55.8-12-9.6 17.3-12.1 7-20.8-12.2-8.7 3.5-10.4 8.7-3.4 7.9-9.6 19.5 18.8-2.6-32.3-11-13.3-77.6 9.8v-15H512l-28.1 36.4-20.4 6.9-19.1-7-16.5 17.1 2.6 10.7-24.2 19 3.4 9.4 22.6-11 17.3 13.8 15.6-3.5-4.8 14.8 20.4 21.6 12.1-7-10.4-12v-7l17.3 10.4 22.9 20.8 8.3-12.1 24.3 12.1.9-10.4h7.8zm-152-3.5-34.2 12.3v24.8l12.7 17.8 29.3-4.2v37.1L453 280l13.7-11.7 25.4-54.7-30.8-36zm173 70.2-8.7-7-26 13.9 3.4 20.8 17.4-1.7 8.5 8.6h17.4l6.7-19.6-8.5-22zM1-1h2L2-2z"/></clipPath><linearGradient id="hobbyistPaint" gradientUnits="userSpaceOnUse" x1="428.8" y1="339.6" x2="86.6" y2="419.6"><stop offset="0" stop-color="#00BFE0"/><stop offset="1" stop-color="#0086B9"/></linearGradient><filter id="shadow"><feDropShadow dx="-4" dy="4" stdDeviation="0"/></filter><style>.cloud{opacity:0.2;fill:#FFFFFF;}.globe{fill:url(#globalGradient);}.landGradient{fill:url(#landmassGradient);}.landmassRotation{animation: rotate 30s linear infinite;}@keyframes rotate {from {transform: translate(0, 0);} to {transform: translate(412px, 0);}}</style></defs><path class="cloud" d="M137.9 395c-65.7 8.2-149.6-27.2-166.8-80.6C-46.2 261 1.5 188.7 54.9 141 107.5 92.5 165 68.7 214.3 73.6s89.6 38.7 137.2 55.1c47.7 16.4 102.8 15.6 137.3 42.7 34.5 26.3 49.3 81.4 54.2 147.1 4.1 66.6-.8 145.5-42.7 141.4-42-4.1-120-90.4-183.3-107.7C253 335 204.5 386.7 138 395z"/><circle class="globe" cx="349.5" cy="165" r="130"/><g clip-path="url(#globe)" filter="url(#shadow)"><rect height="100%" width="100%" clip-path="url(#landmass)" fill="url(#landmassGradient)"/></g><g id="the_HTML"><path id="the" d="M39.6 239.7v-20.5h-7.2v-7.6h24.9v7.6H50v20.5H39.6zm19.2 0v-28h10.6v9h7v-9h10.5v28H76.4v-9.2h-7v9.2H58.8zm31.2 0v-28h22.4v7.5h-11.9v2.5h10.3v7.9h-10.3v2.5h12v7.6H90z"/><path id="HTML" d="M35.2 355V244h41.6v36.2h27.8v-36.1h41.6V355h-41.6v-36.2H76.8V355H35.2zm145.3 0v-81h-28.2v-30h98v30h-28.2v81h-41.6zm76 0V244H296l22.6 45.9L341 244h39.6V355h-41.7v-39l-9.8 20h-21.2l-9.8-20v39h-41.7zm136.1 0V244h41.7v79.3h45.3v31.6h-87z"/></g><path filter="url(#shadow)" d="M87 466.5a72.5 72.5 0 0 1-1-10.4c-.2-4-.1-8.4.2-13a253.7 253.7 0 0 1 7.3-44.5 186.2 186.2 0 0 1 10.5-28 138.4 138.4 0 0 1 6.4-12.2c1.4-.2 2.8-.3 4.4-.3a34.8 34.8 0 0 1 9 1.7c1.3.6 2.4 1.1 3.3 1.7a214.6 214.6 0 0 0-13.2 22.3 121.8 121.8 0 0 0-8.5 20.3 386 386 0 0 0-2.7 9.6 144.5 144.5 0 0 0-3.5 17.3c-.4 2.8-.7 5.8-.9 8.9 12.2-23 22.1-35.3 29.8-36.7 2.2-.4 4.6 0 7.3.9a23 23 0 0 1 7.6 4.5 95.8 95.8 0 0 0-6 11.6 167.2 167.2 0 0 0-5.4 13.2 109 109 0 0 0-3.6 12.2c-.8 3.7-1 6.3-.8 8 .2.8.4 1.3.7 1.6.3.2.9.3 1.7.1a7.5 7.5 0 0 0 2.9-1 5.6 5.6 0 0 1 1.3-.7l1 1.2.2.6c0 .3-.4.9-1.2 1.7l-3.2 2.5a72.6 72.6 0 0 1-3.7 2.4 9.9 9.9 0 0 1-2.9 1.2c-.8.2-1.7.1-2.6-.2a7.5 7.5 0 0 1-2.5-1.4 9.3 9.3 0 0 1-1.9-2.2 7.7 7.7 0 0 1-1-2.7c-.3-1.3-.3-3.2 0-5.7a210.3 210.3 0 0 1 7.3-33.4c0-.4-.3-.5-.6-.5a6 6 0 0 0-1.7 1.4 67.9 67.9 0 0 0-2.6 2.5 68 68 0 0 0-7.4 9.8 126 126 0 0 0-6.9 12.3 142 142 0 0 0-5.8 13.7 112.6 112.6 0 0 0-4.2 14.3 5.3 5.3 0 0 1-.8 1.8c-.4.6-.7.9-1 1-.3 0-.7-.2-1.3-.7a10 10 0 0 1-1.6-2l-1.5-2.4a7.2 7.2 0 0 1-1-2.3zm71.6-6.3a16 16 0 0 1-12.4-4.2 22.4 22.4 0 0 1-6.7-13 39 39 0 0 1-.4-10.6 50.4 50.4 0 0 1 2.4-11 59.1 59.1 0 0 1 4.7-10.7 48 48 0 0 1 6.6-9.1 22 22 0 0 1 11.9-7.4c2.8 1 6 3.4 9.3 7.4l1.1-.3 1.1-.2c4.4-.8 7.3 2.6 8.7 10.4 1 5.2 1 10.3.1 15.2a45.8 45.8 0 0 1-4.7 14 43.3 43.3 0 0 1-21.7 19.5zm-.8-40.1a61.4 61.4 0 0 0-4.8 14.2c-.5 2.4-.8 4.7-1 7 0 2.1 0 4 .4 5.7a16.7 16.7 0 0 0 2 5.5c1 1.7 1.9 2.6 2.8 2.7a27.4 27.4 0 0 0 9.3-6.5 34.1 34.1 0 0 0 6.5-10 42.5 42.5 0 0 0 3.3-12.4c.5-4.5.3-9.2-.6-14a27.8 27.8 0 0 0-1.3-5 9.5 9.5 0 0 0-1.8-3 27 27 0 0 0-8.8 7 52.1 52.1 0 0 0-6 8.8zm43.3 28.8a63.2 63.2 0 0 0 9.4-11.8 97.7 97.7 0 0 0 7.5-14.8 92.6 92.6 0 0 0 5-15.9 67.2 67.2 0 0 0 1.5-15.2c-.2-1-.8-1.6-2-1.7-1.1.2-2.5 1.5-4.2 3.9a82.5 82.5 0 0 0-5.2 9 151.6 151.6 0 0 0-5.6 11.8 165.5 165.5 0 0 0-4.7 12.8 143.2 143.2 0 0 0-3.3 11.7c-.9 3.6-1.2 6.4-1 8.5-.8.2-1.7-.5-2.5-2a4.7 4.7 0 0 0-1.1-1.2 13.4 13.4 0 0 0-2.3-1.3l-1.5-1-1-1a7.7 7.7 0 0 1-1.1-3.1 84.5 84.5 0 0 1-1.1-16.8 186.4 186.4 0 0 1 5.2-39.6 187.7 187.7 0 0 1 5.4-18.4c2-5.6 4.2-10.5 6.5-14.6s4.7-7 7.2-8.5a38.9 38.9 0 0 1 13.3 5.3c-7.7 8.9-13.9 19.7-18.5 32.4a172 172 0 0 0-8.9 43.7 112.9 112.9 0 0 1 12.3-26 53.4 53.4 0 0 1 6.8-8.7c2.3-2.3 4.3-3.6 6-4a15.6 15.6 0 0 1 8 3.5 19.5 19.5 0 0 1 3.2 3.4c1 1.3 1.6 2.6 2 4 .6 3.6.7 7.4.3 11.5a71.1 71.1 0 0 1-2.4 12.3 91 91 0 0 1-4.3 12c-1.8 4-3.7 7.4-5.8 10.5s-4.4 5.6-6.7 7.6-4.6 3.3-7 3.7a15.6 15.6 0 0 1-6 0 9.5 9.5 0 0 1-2.3-.9c-.7-.3-1-.7-1-1zm50.2-9a63.2 63.2 0 0 0 9.4-11.9 97.7 97.7 0 0 0 7.5-14.8 92.6 92.6 0 0 0 5-15.8 67.2 67.2 0 0 0 1.5-15.3c-.1-1-.8-1.5-2-1.7-1 .2-2.5 1.5-4.1 4a82.5 82.5 0 0 0-5.3 8.9 151.6 151.6 0 0 0-5.5 11.8A165.5 165.5 0 0 0 253 418a143.2 143.2 0 0 0-3.3 11.7c-.9 3.6-1.2 6.5-1 8.6-.8.1-1.6-.6-2.5-2.1a4.7 4.7 0 0 0-1.1-1.2 13.4 13.4 0 0 0-2.3-1.3c-.5-.2-1-.5-1.4-1l-1.1-1a7.7 7.7 0 0 1-1.1-3 84.5 84.5 0 0 1-1.1-16.9 186.4 186.4 0 0 1 5.2-39.5 187.7 187.7 0 0 1 5.5-18.4c2-5.7 4.1-10.5 6.5-14.6s4.7-7 7-8.6a38.9 38.9 0 0 1 13.3 5.3c-7.6 9-13.8 19.8-18.3 32.5a172 172 0 0 0-9 43.7 112.9 112.9 0 0 1 12.3-26 53.9 53.9 0 0 1 6.8-8.8c2.3-2.3 4.3-3.6 6-3.9 1.4.1 2.8.5 4.2 1 1.4.7 2.7 1.5 3.9 2.5a19.5 19.5 0 0 1 3.1 3.4c1 1.2 1.6 2.6 2 4 .6 3.5.7 7.3.3 11.4a71.1 71.1 0 0 1-2.4 12.4 91 91 0 0 1-4.3 12 62.8 62.8 0 0 1-5.8 10.4 42 42 0 0 1-6.7 7.7c-2.3 2-4.6 3.2-7 3.7a15.6 15.6 0 0 1-6-.1 9.5 9.5 0 0 1-2.3-.8c-.7-.4-1-.7-1-1.1zm81.7-35.5a295.6 295.6 0 0 1-2.7 17.5c-1 5.3-2.2 10.2-3.6 14.8a98 98 0 0 1-4.8 12.7 90.1 90.1 0 0 1-6.4 11.4 46.4 46.4 0 0 1-10.1 11.2 26.5 26.5 0 0 1-11.6 5.4 28.3 28.3 0 0 1-12.2-.4 24 24 0 0 1-5.2-1.9 9.9 9.9 0 0 1-3.5-2.8c-.2-1 .2-2 1.3-2.9a35.4 35.4 0 0 0 5 2.6c.6.2 1.3.3 2 .2a23.1 23.1 0 0 0 2.5-.3c4.7-.8 9-3 13-6.6 4-3.6 7.5-8.3 10.6-14a92 92 0 0 0 7.6-20.4 149.4 149.4 0 0 0 4-25.7l-2.8 6.7a91 91 0 0 1-3.9 8 62.3 62.3 0 0 1-4.7 7.5 17.4 17.4 0 0 1-5.2 4.8 13.8 13.8 0 0 1-4.3.1c-1.5-.2-3-.6-4.4-1.2a16 16 0 0 1-4-2.4 9.2 9.2 0 0 1-2.6-3.6 38.5 38.5 0 0 1-.8-10.7 98.4 98.4 0 0 1 4.3-23.8 86.6 86.6 0 0 1 4.5-12 34.8 34.8 0 0 1 6-9.1 19.9 19.9 0 0 1 5.6-.2l3.3.6c1.1.3 2 .8 3 1.4-.8 1-2.3 4-4.5 9.3a137.2 137.2 0 0 0-7.2 26.4 127.4 127.4 0 0 0-1.1 11.5c-.1 2 0 3.4.1 4.5a2.9 2.9 0 0 0 1.3 2c1.4-.5 3.2-2 5.3-4.7s4.2-6.5 6.5-11.7a149.3 149.3 0 0 0 7.2-19.6 1081.7 1081.7 0 0 1 7.2-20.7c1-.2 2.2-.2 3.5-.2a32.7 32.7 0 0 1 7 1c1 .3 1.7.6 2.2 1-1.6 6-3 11.7-4.3 17.3a181.3 181.3 0 0 0-3 17zm8 9.8a28 28 0 0 1-.4-2.8 68.5 68.5 0 0 1-.1-4.6 265.3 265.3 0 0 1 .4-16.8 48.8 48.8 0 0 1 1.6-10.4 37.3 37.3 0 0 1 2.4-6.5 13 13 0 0 1 4.2-5 22.3 22.3 0 0 1 13 6 43.9 43.9 0 0 0-3.7 7.3 67 67 0 0 0-2.2 7.3 92.5 92.5 0 0 0-1.6 7.7l-1.5 8.4a96.1 96.1 0 0 0-1.2 7.5 27.2 27.2 0 0 0 .5 9.8c0 .6-.1 1-.5 1a7 7 0 0 1-2.1-.3 12.4 12.4 0 0 1-3.4-1.3 13.7 13.7 0 0 1-3.4-2.8 8.8 8.8 0 0 1-2-4.5zm13.9-58V354a5 5 0 0 1-1.5-1.7 6.6 6.6 0 0 1-.8-2.1l-.2-3.1a63.4 63.4 0 0 1 .4-9.2l.7-4.6a10.9 10.9 0 0 1 3.8.1 30.1 30.1 0 0 1 9.4 3.4c1.4.8 2.5 1.6 3.4 2.4l-3 4.4a92.3 92.3 0 0 0-3.4 5.9 201.3 201.3 0 0 0-2.9 5.7 28.5 28.5 0 0 0-1.6 3.7 5 5 0 0 1-2.9-.8c-.8-.5-1.3-1.2-1.4-1.8zm42.2 5.4a26.8 26.8 0 0 1-.8 10 17.7 17.7 0 0 1-1.5 3.7c-.6 1-1.2 1.6-1.8 1.7-1 .1-1.6-.4-2-1.5l.1-1.2.4-2 .3-2a6 6 0 0 0 0-1.9 5.1 5.1 0 0 0-1.3-2.7 2.5 2.5 0 0 0-2.4-.8c-3.3.6-5.4 3.1-6.4 7.5a49.4 49.4 0 0 0 1 20l4.7-.8 4-.7.3 1c.1.7 0 1.2-.2 1.6a152 152 0 0 0-6.7 3.1c-.6.4-.9.7-1 1v1.2l.5 2 .5 2.4c1.2 7 .4 12.8-2.6 17.7-3 4.9-7.8 8.2-14.3 10.1-1.2.1-2.5 0-3.8-.3a16.9 16.9 0 0 1-4-1.6 16.8 16.8 0 0 1-3.4-2.5 10.7 10.7 0 0 1-2.3-3.1c-.6-3.2-.5-6.3.3-9.4.8-3.1 2.2-6 4-8.6a27.8 27.8 0 0 1 7.1-6.8 25 25 0 0 1 9.7-3.9 30.1 30.1 0 0 0-1.7-6l-2.4-5.5-2.2-5.2a23.6 23.6 0 0 1-1.6-5.2c-.4-2.2-.4-4.5.1-6.9.6-2.3 1.4-4.6 2.5-6.7a23.3 23.3 0 0 1 4.4-5.7 19.1 19.1 0 0 1 5.7-3.9c1 .1 2.3.6 4 1.5 1.7 1 3.5 2 5.2 3.2a44.7 44.7 0 0 1 4.8 3.8c1.4 1.3 2.3 2.5 2.8 3.4zm-30.7 63.8a20.7 20.7 0 0 0 5-4.6 28 28 0 0 0 3.7-6.2 29.2 29.2 0 0 0 2-6.9 20 20 0 0 0 0-6.7 14.5 14.5 0 0 0-5 3.2 33 33 0 0 0-4.8 5.6 32.2 32.2 0 0 0-3.3 6.3c-.8 2.1-1 3.9-.8 5.3a5.3 5.3 0 0 0 3.3 4zm30.3-61.6a8 8 0 0 1-1.7-3 21.6 21.6 0 0 1-1.2-4c2.2 0 4.3-.3 6.3-.6l5.4-1c.8-2.7 1.7-5.3 2.7-8a140.6 140.6 0 0 1 3-7.4 57.9 57.9 0 0 1 3-5.7c.9-1.6 1.6-2.7 2.2-3.2.9-.2 2-.2 3.3-.2a39.8 39.8 0 0 1 8 1.2 6.5 6.5 0 0 1 2.4 1.1 135.8 135.8 0 0 0-4.8 9.8 235 235 0 0 0-4.1 10.2l5-.9a36.3 36.3 0 0 0 5-1.3 5.2 5.2 0 0 1 2 3.2c-3.7 2.3-8.5 4-14.2 5a145.2 145.2 0 0 0-3.4 12.9 131.3 131.3 0 0 0-2.8 22.8c0 3.3.2 6.3.7 8.9.6 3.6 2.3 5.4 5.1 5.3a29.2 29.2 0 0 0 6.8-3.1 24 24 0 0 0 5.3-4.6 5.1 5.1 0 0 1 1.2 1.7c-.4.9-1 1.9-2.1 3a52.8 52.8 0 0 1-3.4 3.7 37 37 0 0 1-3.6 3.1c-1.2.9-2.1 1.4-2.8 1.6-2 .4-4.2.4-6.4 0a26 26 0 0 1-6.2-2.2 18.4 18.4 0 0 1-4.9-3.4 7.9 7.9 0 0 1-2.4-4.2 45 45 0 0 1-.6-7.6c0-3.1.2-6.6.6-10.3a212.7 212.7 0 0 1 3.7-24l-7 1.2z" fill="url(#hobbyistPaint)"/></svg>
