<svg xmlns="http://www.w3.org/2000/svg" viewBox="0 0 362.73 512"><path fill="#264de4" d="m362.74 100.62-33.05 370.2L181.15 512 33 470.88 0 100.62z"/><path fill="#2965f1" d="m301.4 447.25 28.24-316.36H181.37v349.63z"/><path fill="#ebebeb" d="m75.68 268.22 4.07 45.41h101.62v-45.41zM181.37 176.31H67.5l4.13 45.41h109.74zM181.37 433.4v-47.25l-.2.06-50.57-13.66-3.24-36.22H81.78l6.36 71.3 93.02 25.83z"/><path d="M85.37 0h55v23h-32v23h32v23h-55zM151.37 0h55v20h-32v4h32v46h-55V49h32v-4h-32zM217.37 0h55v20h-32v4h32v46h-55V49h32v-4h-32z"/><path fill="#fff" d="m237.13 313.63-5.27 58.89-50.65 13.67v47.25l93.1-25.81.68-7.67 10.67-119.55 1.1-12.19 8.2-91.91H181.22v45.41h63.99l-4.13 46.5H181.2v45.41z"/></svg>
